# xmcd CD database file
#
# Track frame offsets:
#	150
#	34029
#	65298
#	84748
#	109034
#	125724
#	145451
#	160548
#	172939
#	194831
#	210801
#
# Disc length: 3088 seconds
#
# Revision: 0
# Processed by: cddbd v1.5.1PL2 Copyright (c) Steve Scherf et al.
# Submitted via: CDex 1.51
#
DISCID=940c0e0b
DTITLE=Evan's Mixed Bag - The Better Place
DYEAR=2006
DGENRE=Jazz
TTITLE0=The Better Place
TTITLE1=Soliloquy
TTITLE2=Israel
TTITLE3=Lament
TTITLE4=LadyBird - Half Nelson
TTITLE5=Monkish
TTITLE6=Back to Bassics
TTITLE7=Tones for Joan's Bones
TTITLE8=DayRide
TTITLE9=Lester Leaps In
TTITLE10=Cottontail
EXTD=YEAR: 2006
EXTT0=
EXTT1=
EXTT2=
EXTT3=
EXTT4=
EXTT5=
EXTT6=
EXTT7=
EXTT8=
EXTT9=
EXTT10=
PLAYORDER=
